<?xml version="1.0" encoding="UTF-8"?>
<svg version="1.1" xmlns="http://www.w3.org/2000/svg" width="200" height="200">
<path d="M0 0 C1.64548828 0.00193359 1.64548828 0.00193359 3.32421875 0.00390625 C11.45300803 0.09367202 11.45300803 0.09367202 14.875 2.375 C15.4375 5.0625 15.4375 5.0625 14.875 8.375 C13.10141039 10.94027889 11.07099334 13.16593527 8.875 15.375 C9.2359375 16.21804687 9.596875 17.06109375 9.96875 17.9296875 C10.66484375 19.57324219 10.66484375 19.57324219 11.375 21.25 C11.8390625 22.34054688 12.303125 23.43109375 12.78125 24.5546875 C13.875 27.375 13.875 27.375 13.875 29.375 C14.47828125 29.56835938 15.0815625 29.76171875 15.703125 29.9609375 C16.50234375 30.22132812 17.3015625 30.48171875 18.125 30.75 C19.30835937 31.13285156 19.30835937 31.13285156 20.515625 31.5234375 C24.43119842 32.93667427 26.97717898 34.40051704 29.875 37.375 C31.06161133 38.15891518 32.27210915 38.90746707 33.5 39.625 C37.53722963 42.08017292 41.20444668 44.87868222 44.89453125 47.82421875 C46.4998217 49.08122133 48.17855311 50.24403541 49.875 51.375 C49.125 56.125 49.125 56.125 46.875 58.375 C44.99560547 58.60205078 44.99560547 58.60205078 42.7421875 58.5703125 C41.93652344 58.56386719 41.13085938 58.55742188 40.30078125 58.55078125 C39.45902344 58.53402344 38.61726563 58.51726563 37.75 58.5 C36.47576172 58.48646484 36.47576172 58.48646484 35.17578125 58.47265625 C33.07540116 58.44905647 30.97516556 58.41318483 28.875 58.375 C28.91367188 59.53644531 28.95234375 60.69789062 28.9921875 61.89453125 C28.99030048 66.179008 28.16427457 69.92805053 27 74.0625 C26.65195313 75.32449219 26.30390625 76.58648437 25.9453125 77.88671875 C23.46064054 85.98457297 23.46064054 85.98457297 19.875 88.375 C19.38 89.86 19.38 89.86 18.875 91.375 C17.22678756 92.40513277 15.55996298 93.40614628 13.875 94.375 C13.545 95.035 13.215 95.695 12.875 96.375 C15.515 96.375 18.155 96.375 20.875 96.375 C20.875 97.035 20.875 97.695 20.875 98.375 C21.844375 98.4575 22.81375 98.54 23.8125 98.625 C29.74447422 99.49309379 35.19396193 101.51701055 39.25 106 C39.78625 106.78375 40.3225 107.5675 40.875 108.375 C42.36 109.365 42.36 109.365 43.875 110.375 C45.73253812 113.60849228 46.875 115.61913583 46.875 119.375 C47.535 119.375 48.195 119.375 48.875 119.375 C49.04104736 120.02984375 49.20709473 120.6846875 49.37817383 121.359375 C50.14331162 124.36578531 50.91535346 127.37038248 51.6875 130.375 C51.94853516 131.40496094 52.20957031 132.43492187 52.47851562 133.49609375 C53.97290215 139.28914767 55.70614742 144.80225378 57.875 150.375 C58.46883381 152.30312705 59.03590511 154.23993477 59.5625 156.1875 C59.93955078 157.55841797 59.93955078 157.55841797 60.32421875 158.95703125 C60.875 161.375 60.875 161.375 60.875 164.375 C61.535 164.375 62.195 164.375 62.875 164.375 C68.56855647 186.28502534 68.56855647 186.28502534 66.1640625 193.51171875 C64.40268294 196.05771284 62.80044624 196.42608773 59.875 197.375 C57.18099976 197.62668228 57.18099976 197.62668228 54.22021484 197.62896729 C52.5294986 197.63742676 52.5294986 197.63742676 50.80462646 197.64605713 C48.96387543 197.63998444 48.96387543 197.63998444 47.0859375 197.63378906 C45.13642181 197.63904602 45.13642181 197.63904602 43.14752197 197.64440918 C39.58970649 197.65351371 36.03200723 197.64999695 32.47418976 197.64365101 C28.74760123 197.63858099 25.02102252 197.64328525 21.29443359 197.64642334 C15.03676572 197.65006006 8.77914508 197.6452716 2.52148438 197.63574219 C-4.7091049 197.62485819 -11.93958138 197.62838397 -19.17016792 197.639395 C-25.38261949 197.64847625 -31.59503714 197.64974905 -37.80749321 197.64451766 C-41.5159884 197.64140257 -45.2244306 197.64097595 -48.93292236 197.64759064 C-53.0673285 197.65445014 -57.20154073 197.64493765 -61.3359375 197.63378906 C-62.56310486 197.63783752 -63.79027222 197.64188599 -65.05462646 197.64605713 C-66.18177063 197.64041748 -67.30891479 197.63477783 -68.47021484 197.62896729 C-69.44727386 197.62821323 -70.42433289 197.62745918 -71.43099976 197.62668228 C-74.35516289 197.35349743 -76.49765068 196.67306353 -79.125 195.375 C-82.10411646 191.0778502 -81.6460004 186.38413641 -81.125 181.375 C-79.74113707 173.936976 -77.78614769 166.52749878 -74.91796875 159.5234375 C-72.97745737 154.26589435 -71.61850606 148.77284932 -70.125 143.375 C-69.465 143.375 -68.805 143.375 -68.125 143.375 C-68.00253906 142.2303125 -67.88007812 141.085625 -67.75390625 139.90625 C-67.19813032 135.46004254 -66.19697292 131.20443731 -65.0625 126.875 C-64.87623047 126.14796875 -64.68996094 125.4209375 -64.49804688 124.671875 C-64.04473545 122.90512276 -63.5854998 121.13989225 -63.125 119.375 C-62.465 119.375 -61.805 119.375 -61.125 119.375 C-61.021875 118.653125 -60.91875 117.93125 -60.8125 117.1875 C-59.44343605 111.58678385 -56.65046584 108.76909938 -52.125 105.375 C-51.68027344 104.88644531 -51.23554687 104.39789063 -50.77734375 103.89453125 C-48.73110564 102.01276618 -46.77016795 101.20114862 -44.1875 100.1875 C-42.90552734 99.67123047 -42.90552734 99.67123047 -41.59765625 99.14453125 C-39.125 98.375 -39.125 98.375 -35.125 98.375 C-35.125 97.715 -35.125 97.055 -35.125 96.375 C-32.485 96.375 -29.845 96.375 -27.125 96.375 C-27.5375 95.9625 -27.95 95.55 -28.375 95.125 C-28.9525 94.5475 -29.53 93.97 -30.125 93.375 C-30.846875 92.694375 -31.56875 92.01375 -32.3125 91.3125 C-34.125 89.375 -34.125 89.375 -34.125 87.375 C-35.115 87.045 -36.105 86.715 -37.125 86.375 C-39.25210211 82.2783589 -40.54660623 79.01266855 -40.125 74.375 C-40.785 74.375 -41.445 74.375 -42.125 74.375 C-42.125 69.425 -42.125 64.475 -42.125 59.375 C-43.46175781 59.39820313 -44.79851563 59.42140625 -46.17578125 59.4453125 C-47.92968192 59.4640708 -49.68358862 59.48227093 -51.4375 59.5 C-52.75911133 59.52513672 -52.75911133 59.52513672 -54.10742188 59.55078125 C-54.95498047 59.55722656 -55.80253906 59.56367187 -56.67578125 59.5703125 C-57.84620972 59.58602295 -57.84620972 59.58602295 -59.0402832 59.60205078 C-61.125 59.375 -61.125 59.375 -64.125 57.375 C-64.04770327 54.74691123 -63.65639848 52.95367013 -61.8515625 50.98828125 C-59.98598099 49.389837 -58.06405134 47.88353994 -56.125 46.375 C-55.30773437 45.68535156 -54.49046875 44.99570312 -53.6484375 44.28515625 C-52.36839844 43.21587891 -52.36839844 43.21587891 -51.0625 42.125 C-50.26714844 41.45984375 -49.47179687 40.7946875 -48.65234375 40.109375 C-46.125 38.375 -46.125 38.375 -42.87890625 37.328125 C-41.97011719 37.01359375 -41.06132813 36.6990625 -40.125 36.375 C-39.795 35.385 -39.465 34.395 -39.125 33.375 C-37.05078125 32.41015625 -37.05078125 32.41015625 -34.4375 31.4375 C-27.72953734 28.31416495 -25.69019191 23.01988827 -23.125 16.375 C-22.795 15.385 -22.465 14.395 -22.125 13.375 C-21.465 13.375 -20.805 13.375 -20.125 13.375 C-19.88716797 12.47007813 -19.88716797 12.47007813 -19.64453125 11.546875 C-19.41121094 10.74765625 -19.17789063 9.9484375 -18.9375 9.125 C-18.60685547 7.94164062 -18.60685547 7.94164062 -18.26953125 6.734375 C-14.45749682 -1.12388027 -7.66578018 -0.17236666 0 0 Z " fill="#0B0C0E" transform="translate(104.125,1.625)"/>
<path d="M0 0 C3.17950954 2.57186994 6.15302286 5.32118473 9.109375 8.14453125 C11.22403437 9.56338491 11.22403437 9.56338491 14.12109375 9.2890625 C17.82318945 8.12393594 19.67350683 6.51087988 22.44921875 3.8203125 C27.55401772 -1.06791924 29.98838568 -2.16008339 37.05078125 -2.0859375 C44.78489307 -1.08798759 52.53094096 3.34417894 57.68896484 9.19873047 C62.47725673 15.92525107 64.12684777 25.26471924 66.32421875 33.1328125 C68.34998711 40.26967976 70.501512 47.34682906 72.875 54.375 C73.21769928 55.39037086 73.21769928 55.39037086 73.56732178 56.42625427 C74.69824627 59.76568366 75.84181866 63.10032991 76.99853516 66.4309082 C77.41409668 67.64609131 77.8296582 68.86127441 78.2578125 70.11328125 C78.63220459 71.1911792 79.00659668 72.26907715 79.39233398 73.37963867 C80.16326863 76.18929309 80.36544219 78.42695443 80.19921875 81.3203125 C75.32478446 81.5188016 70.4527227 81.66356193 65.57519531 81.75976562 C63.91820286 81.79988024 62.26149157 81.85439046 60.60546875 81.92382812 C47.04559913 82.47795741 47.04559913 82.47795741 42.91894531 79.890625 C41.23876924 77.78098688 40.24985185 75.80175344 39.19921875 73.3203125 C38.74297119 72.49909912 38.28672363 71.67788574 37.81665039 70.83178711 C33.99925013 63.56454828 33.14541596 56.47906987 32.51171875 48.3828125 C32.30629417 45.99810104 32.09433792 43.61394077 31.875 41.23046875 C31.74992065 39.67017944 31.74992065 39.67017944 31.62231445 38.07836914 C31.20631283 35.36655706 30.73246382 33.58700501 29.19921875 31.3203125 C27.71421875 30.8253125 27.71421875 30.8253125 26.19921875 30.3203125 C26.62246766 34.57185465 27.06548757 38.82112601 27.51171875 43.0703125 C27.68864258 44.85115234 27.68864258 44.85115234 27.86914062 46.66796875 C29.2685968 59.80132672 32.12967294 69.18122089 38.19921875 81.3203125 C15.42921875 81.3203125 -7.34078125 81.3203125 -30.80078125 81.3203125 C-30.80078125 70.16224603 -29.29906917 64.97859674 -23.36328125 55.9453125 C-15.95633361 44.66004893 -12.29148649 32.81662364 -12.80078125 19.3203125 C-14.12078125 18.9903125 -15.44078125 18.6603125 -16.80078125 18.3203125 C-18.00666909 20.73208818 -18.12936664 22.96960893 -18.39501953 25.62548828 C-19.58114517 37.21343164 -22.93507885 46.08346919 -28.86425781 56.12060547 C-33.73958012 64.47011089 -36.15403943 72.85154701 -37.80078125 82.3203125 C-42.75078125 82.3203125 -47.70078125 82.3203125 -52.80078125 82.3203125 C-53.14320643 75.7533585 -51.97656527 70.49528978 -49.98828125 64.2578125 C-49.72724609 63.39865234 -49.46621094 62.53949219 -49.19726562 61.65429688 C-48.04444455 57.92826529 -46.82128091 54.36722818 -45.2578125 50.7890625 C-43.48414714 46.56650261 -42.39367102 42.32135516 -41.30078125 37.8828125 C-39.80660134 31.84343371 -38.03280293 26.12850152 -35.80078125 20.3203125 C-35.41675323 18.843464 -35.03976085 17.36472946 -34.67578125 15.8828125 C-32.38809606 8.8987154 -26.62781349 4.02719989 -20.48828125 0.3203125 C-13.83529661 -2.15521667 -6.385437 -3.82948105 0 0 Z " fill="#004EA7" transform="translate(83.80078125,108.6796875)"/>
<path d="M0 0 C1.36125 0.7425 1.36125 0.7425 2.75 1.5 C2.75 2.16 2.75 2.82 2.75 3.5 C3.74 3.83 4.73 4.16 5.75 4.5 C6.8828125 6.49609375 6.8828125 6.49609375 7.875 8.9375 C8.20757812 9.74058594 8.54015625 10.54367188 8.8828125 11.37109375 C9.16898438 12.07363281 9.45515625 12.77617188 9.75 13.5 C10.245 14.49 10.245 14.49 10.75 15.5 C11.57434524 22.09476193 9.40662566 27.02458397 5.75 32.5 C2.98331136 35.20443815 0.71365282 36.5 -3.25 36.5 C-3.25 37.16 -3.25 37.82 -3.25 38.5 C-3.87648437 38.52578125 -4.50296875 38.5515625 -5.1484375 38.578125 C-5.96570313 38.63484375 -6.78296875 38.6915625 -7.625 38.75 C-8.43710938 38.79640625 -9.24921875 38.8428125 -10.0859375 38.890625 C-12.43838927 39.2922092 -12.43838927 39.2922092 -13.5390625 41.546875 C-13.77367187 42.19140625 -14.00828125 42.8359375 -14.25 43.5 C-14.91 43.5 -15.57 43.5 -16.25 43.5 C-16.25 44.16 -16.25 44.82 -16.25 45.5 C-17.3946875 45.005 -17.3946875 45.005 -18.5625 44.5 C-21.24069135 43.32563314 -21.24069135 43.32563314 -24.25 43.5 C-24.91 43.5 -25.57 43.5 -26.25 43.5 C-26.476875 44.056875 -26.70375 44.61375 -26.9375 45.1875 C-28.92095634 48.68216117 -31.41192691 51.72607449 -35.1796875 53.3125 C-37.25 53.5 -37.25 53.5 -39.171875 52.42578125 C-39.77515625 51.89339844 -40.3784375 51.36101562 -41 50.8125 C-41.61359375 50.29300781 -42.2271875 49.77351563 -42.859375 49.23828125 C-44.25 47.5 -44.25 47.5 -44.25 43.5 C-41.875 40.75 -41.875 40.75 -39.25 38.5 C-38.59 38.5 -37.93 38.5 -37.25 38.5 C-34.61882134 33.65198092 -34.61882134 33.65198092 -35.1875 28.3125 C-35.538125 27.384375 -35.88875 26.45625 -36.25 25.5 C-32.5 21.625 -32.5 21.625 -30.25 20.5 C-29.89484486 18.57355536 -29.89484486 18.57355536 -29.8125 16.3125 C-29.16532197 9.39098586 -26.54017113 5.0344324 -21.25 0.5 C-14.78777982 -2.6541789 -6.63391935 -2.85664691 0 0 Z " fill="#161612" transform="translate(183.25,54.5)"/>
<path d="M0 0 C4.36513691 1.98776726 7.22010212 4.50905397 9 9 C9.74722522 13.28936017 9.9617225 17.31319334 7.76171875 21.171875 C5.28964702 24.14081474 3.71810774 25.76063075 0 27 C-4.55685569 27.40162118 -8.66279936 27.54057047 -12.9375 25.8125 C-16.1982794 22.94696659 -17.71363772 20.84990034 -18.390625 16.4765625 C-18.7008903 11.32897909 -18.52945339 7.90374191 -15.125 3.875 C-10.6425828 -0.65072558 -6.18209034 -0.83167135 0 0 Z " fill="#FADD22" transform="translate(178,59)"/>
<path d="M0 0 C2 0.3125 2 0.3125 4 1 C5.49825748 3.99651497 5.52273479 7.20768961 5.875 10.5 C6.9643502 19.72501657 8.47588684 27.60249084 14.109375 35.2109375 C15 37 15 37 14.640625 39.2265625 C14.42921875 39.81179687 14.2178125 40.39703125 14 41 C11.55153888 40.62650593 10.31693816 40.36116209 8.65625 38.46875 C7.39983107 36.32944209 6.17168587 34.18714696 5 32 C4.62488281 31.30390625 4.24976563 30.6078125 3.86328125 29.890625 C-0.47310689 21.05664469 -1.88177909 10.781596 -1 1 C-0.67 0.67 -0.34 0.34 0 0 Z " fill="#00050C" transform="translate(124,127)"/>
<path d="M0 0 C0.99 0 1.98 0 3 0 C3.72890889 22.54218223 3.72890889 22.54218223 -1 32 C-1.99 32 -2.98 32 -4 32 C-4.11657965 25.10884721 -3.81267093 18.35618177 -3.125 11.5 C-3.04636719 10.60796875 -2.96773438 9.7159375 -2.88671875 8.796875 C-2.80292969 7.94609375 -2.71914062 7.0953125 -2.6328125 6.21875 C-2.55949707 5.45498047 -2.48618164 4.69121094 -2.41064453 3.90429688 C-2 2 -2 2 0 0 Z " fill="#000710" transform="translate(81,139)"/>
<path d="M0 0 C5.28 0.33 10.56 0.66 16 1 C16 6 16 6 14.609375 7.8359375 C13.99578125 8.34382813 13.3821875 8.85171875 12.75 9.375 C12.14671875 9.89835937 11.5434375 10.42171875 10.921875 10.9609375 C9 12 9 12 6.9375 11.80078125 C3.79111708 10.50036089 2.10820623 8.63525779 0 6 C0 4.02 0 2.04 0 0 Z " fill="#EBEBEB" transform="translate(89,99)"/>
<path d="M0 0 C-0.32529059 2.92761527 -0.59569177 5.32615294 -2.125 7.875 C-5.09920277 9.65952166 -7.612619 9.29713868 -11 9 C-13.4375 8 -13.4375 8 -15 7 C-15 6.01 -15 5.02 -15 4 C-13.25307205 3.32532438 -11.50231475 2.66055844 -9.75 2 C-8.77546875 1.62875 -7.8009375 1.2575 -6.796875 0.875 C-4 0 -4 0 0 0 Z " fill="#E8E8E8" transform="translate(118,63)"/>
<path d="M0 0 C4.84659077 0.59104765 8.60748167 1.97944157 13 4 C13 5.32 13 6.64 13 8 C9.87139505 9.56430248 7.44397075 9.35627284 4 9 C1.5625 6.75 1.5625 6.75 0 4 C0 2.68 0 1.36 0 0 Z " fill="#EEEEEE" transform="translate(76,63)"/>
<path d="M0 0 C3.29322109 0.43909615 4.90823349 1.44992509 7 4 C7.72701802 11.51251953 6.32418865 18.83552856 4 26 C3.34 26.33 2.68 26.66 2 27 C2.47232358 23.15393658 2.94758102 19.32616257 3.5625 15.5 C4.04937184 11.60502525 4.06879992 7.92159537 4 4 C2.68 3.67 1.36 3.34 0 3 C-1.46569415 5.9313883 -1.62086218 8.88632266 -2.0625 12.125 C-2.23910156 13.40632812 -2.41570312 14.68765625 -2.59765625 16.0078125 C-2.73042969 16.99523437 -2.86320312 17.98265625 -3 19 C-3.33 19 -3.66 19 -4 19 C-4.33216812 12.19670485 -4.28758339 7.04915344 -1 1 C-0.67 0.67 -0.34 0.34 0 0 Z " fill="#0055B5" transform="translate(67,124)"/>
<path d="M0 0 C2.6855594 2.6855594 3.06049974 5.37621328 4 9 C4.66 9 5.32 9 6 9 C9 12.46153846 9 12.46153846 9 15 C19.23 15 29.46 15 40 15 C40.33 14.01 40.66 13.02 41 12 C41.495 13.98 41.495 13.98 42 16 C37.26798827 16.19853527 32.53842283 16.34326787 27.80322266 16.43945312 C26.19472005 16.47956057 24.58650692 16.53406573 22.97900391 16.60351562 C9.63722461 17.16527475 9.63722461 17.16527475 5.64550781 14.32421875 C4.06923537 12.25829571 3.00888694 10.38793708 2 8 C1.62794434 7.33548828 1.25588867 6.67097656 0.87255859 5.98632812 C0 4 0 4 0 0 Z " fill="#005BC3" transform="translate(121,174)"/>
<path d="M0 0 C6.90460734 1.4313332 12.05951438 7.01903849 15.99609375 12.62109375 C12.99478188 11.2281082 10.48551966 9.58154307 7.87109375 7.55859375 C3.37127844 4.08609477 1.15271207 3.50191122 -4.62890625 3.55859375 C-6.41167969 3.57212891 -6.41167969 3.57212891 -8.23046875 3.5859375 C-9.60332031 3.60333984 -9.60332031 3.60333984 -11.00390625 3.62109375 C-7.84517671 -0.26737529 -4.77696281 -0.10784644 0 0 Z " fill="#0050AB" transform="translate(78.00390625,106.37890625)"/>
<path d="M0 0 C1.09178911 3.27536732 0.93042848 4.04413619 0.00390625 7.23046875 C-0.22490234 8.03291016 -0.45371094 8.83535156 -0.68945312 9.66210938 C-0.93630859 10.49548828 -1.18316406 11.32886719 -1.4375 12.1875 C-1.68048828 13.03248047 -1.92347656 13.87746094 -2.17382812 14.74804688 C-2.77493493 16.8342411 -3.38647834 18.91742301 -4 21 C-4.66 21 -5.32 21 -6 21 C-6.33 23.31 -6.66 25.62 -7 28 C-7.66 28 -8.32 28 -9 28 C-7.98602309 22.84661145 -6.73187612 18.00671602 -4.79296875 13.125 C-3.55515472 9.8079023 -2.61515536 6.40820839 -1.6484375 3.00390625 C-1 1 -1 1 0 0 Z " fill="#727272" transform="translate(34,148)"/>
<path d="M0 0 C6.57738947 0.27405789 10.08178237 2.7737394 15 7 C15.845625 7.70125 16.69125 8.4025 17.5625 9.125 C18.036875 9.74375 18.51125 10.3625 19 11 C18.58984375 13.1171875 18.58984375 13.1171875 18 15 C17.278125 13.9275 16.55625 12.855 15.8125 11.75 C11.45944663 5.71895398 6.91317306 3.34344849 0 1 C0 0.67 0 0.34 0 0 Z " fill="#0055B6" transform="translate(124,109)"/>
<path d="M0 0 C3.38752398 3.24024033 4.18013349 5.17947214 4.3125 9.875 C4.34988281 10.73867187 4.38726562 11.60234375 4.42578125 12.4921875 C3.87285087 15.74889672 2.47148713 16.90386693 0 19 C0.08378906 18.04738281 0.16757813 17.09476563 0.25390625 16.11328125 C0.35574219 14.85902344 0.45757812 13.60476562 0.5625 12.3125 C0.66691406 11.07113281 0.77132812 9.82976562 0.87890625 8.55078125 C0.98493841 5.44164467 0.77228525 2.99189028 0 0 Z " fill="#E3D622" transform="translate(183,63)"/>
<path d="M0 0 C0.33 0.66 0.66 1.32 1 2 C0.48050781 2.36351563 -0.03898437 2.72703125 -0.57421875 3.1015625 C-6.28357995 7.21736817 -11.18543637 11.34739506 -14 18 C-14.66 18 -15.32 18 -16 18 C-15.34938905 16.32700041 -14.67966676 14.66140763 -14 13 C-13.731875 12.319375 -13.46375 11.63875 -13.1875 10.9375 C-11.57611871 8.3084042 -9.44615887 6.84953476 -7 5 C-6.2265625 4.195625 -6.2265625 4.195625 -5.4375 3.375 C-3.77453673 1.78433948 -2.08968466 0.93675519 0 0 Z " fill="#525252" transform="translate(59,102)"/>
<path d="M0 0 C3.37714155 5.06571232 4.53912581 8.85396582 4 15 C2.5 18.4375 2.5 18.4375 1 21 C0.07811539 18.23434618 -0.11785222 16.61716298 -0.09765625 13.76953125 C-0.09282227 12.56586914 -0.09282227 12.56586914 -0.08789062 11.33789062 C-0.07951172 10.50451172 -0.07113281 9.67113281 -0.0625 8.8125 C-0.05798828 7.96751953 -0.05347656 7.12253906 -0.04882812 6.25195312 C-0.03705403 4.16793845 -0.0191189 2.08396023 0 0 Z " fill="#4E4E4E" transform="translate(190,62)"/>
<path d="M0 0 C0.66 0 1.32 0 2 0 C1.72208931 7.36463334 -0.94416845 12.87859906 -5 19 C-5.66 19.33 -6.32 19.66 -7 20 C-6.72414062 19.33613281 -6.44828125 18.67226562 -6.1640625 17.98828125 C-4.77696529 14.42744445 -3.56948099 10.81608323 -2.375 7.1875 C-2.14554688 6.49462891 -1.91609375 5.80175781 -1.6796875 5.08789062 C-1.11841567 3.39238197 -0.55901687 1.69625347 0 0 Z " fill="#0056B8" transform="translate(61,144)"/>
<path d="M0 0 C0 3 0 3 -1.625 4.875 C-4.36228654 7.32415112 -7.15718816 9.67406304 -10 12 C-10.66 11.67 -11.32 11.34 -12 11 C-8.19588166 7.08060535 -4.18423892 3.50897269 0 0 Z " fill="#535353" transform="translate(55,42)"/>
<path d="M0 0 C2.6855594 2.6855594 3.06049974 5.37621328 4 9 C4.66 9 5.32 9 6 9 C7.625 11.5 7.625 11.5 9 14 C8.01 14 7.02 14 6 14 C4.39453125 11.953125 4.39453125 11.953125 2.8125 9.25 C2.28269531 8.36828125 1.75289063 7.4865625 1.20703125 6.578125 C0 4 0 4 0 0 Z " fill="#0056B7" transform="translate(121,174)"/>
<path d="M0 0 C3.90829085 0.5647301 5.89920223 2.42131971 8.75 5.0625 C9.54921875 5.79597656 10.3484375 6.52945313 11.171875 7.28515625 C11.77515625 7.85105469 12.3784375 8.41695312 13 9 C9.02348017 9 7.85083826 7.55718178 4.8125 5.0625 C3.91144531 4.33160156 3.01039062 3.60070312 2.08203125 2.84765625 C1.39496094 2.23792969 0.70789063 1.62820312 0 1 C0 0.67 0 0.34 0 0 Z " fill="#0058BC" transform="translate(81,109)"/>
<path d="M0 0 C-0.99 0.33 -1.98 0.66 -3 1 C-3 1.66 -3 2.32 -3 3 C-5.64 3.33 -8.28 3.66 -11 4 C-11 3.01 -11 2.02 -11 1 C-7.26562152 0.12132271 -3.83225427 -0.08912219 0 0 Z " fill="#575757" transform="translate(183,90)"/>
<path d="M0 0 C3.125 0.375 3.125 0.375 6 1 C5.34 1.66 4.68 2.32 4 3 C3.01 3 2.02 3 1 3 C0.67 5.97 0.34 8.94 0 12 C-0.33 12 -0.66 12 -1 12 C-1.22162329 10.37675914 -1.42689803 8.751279 -1.625 7.125 C-1.74101563 6.22007812 -1.85703125 5.31515625 -1.9765625 4.3828125 C-1.98429687 3.59648437 -1.99203125 2.81015625 -2 2 C-1.34 1.34 -0.68 0.68 0 0 Z " fill="#00418B" transform="translate(123,125)"/>
<path d="M0 0 C0.33 0 0.66 0 1 0 C1.103125 1.03125 1.20625 2.0625 1.3125 3.125 C1.99127797 6.95083945 3.11158795 9.63370025 5 13 C1.125 11.25 1.125 11.25 0 9 C-0.06950541 7.45976004 -0.08452357 5.91665012 -0.0625 4.375 C-0.05347656 3.55773437 -0.04445312 2.74046875 -0.03515625 1.8984375 C-0.02355469 1.27195312 -0.01195312 0.64546875 0 0 Z " fill="#EDE925" transform="translate(160,69)"/>
<path d="M0 0 C0.66 0.33 1.32 0.66 2 1 C1.071875 2.1446875 1.071875 2.1446875 0.125 3.3125 C-2.05597052 5.99625809 -2.05597052 5.99625809 -4 9 C-4.66 9 -5.32 9 -6 9 C-4.68775452 5.06326356 -3.08089673 2.77280706 0 0 Z " fill="#D5D021" transform="translate(166,60)"/>
<path d="M0 0 C3.875 0.875 3.875 0.875 5 2 C5.14115161 4.67058851 5.04247107 7.32432238 5 10 C4.67 10 4.34 10 4 10 C3.67 7.69 3.34 5.38 3 3 C1.68 3 0.36 3 -1 3 C-0.67 2.01 -0.34 1.02 0 0 Z " fill="#001D40" transform="translate(67,126)"/>
<path d="M0 0 C4.95 0.99 4.95 0.99 10 2 C9.01 2.495 9.01 2.495 8 3 C8 3.66 8 4.32 8 5 C7.236875 4.690625 6.47375 4.38125 5.6875 4.0625 C3.81210323 3.32106407 1.91315348 2.63771783 0 2 C0 1.34 0 0.68 0 0 Z " fill="#6F6F6F" transform="translate(159,95)"/>
<path d="M0 0 C0.28875 0.61875 0.5775 1.2375 0.875 1.875 C1.93720042 4.13325765 1.93720042 4.13325765 4 6 C4 6.99 4 7.98 4 9 C3.34 9 2.68 9 2 9 C0.4375 6.1875 0.4375 6.1875 -1 3 C-0.67 2.01 -0.34 1.02 0 0 Z " fill="#636464" transform="translate(148,79)"/>
</svg>
